<svg width="25" height="23" viewBox="0 0 25 23" fill="none" xmlns="http://www.w3.org/2000/svg">
<path fill-rule="evenodd" clip-rule="evenodd" d="M0 17.1007V8.3457H25V17.1708C25 20.7807 22.2558 23.0002 17.865 23.0002H7.12129C2.77168 23.0002 0 20.7347 0 17.1007ZM6.88802 14.2717C6.25685 14.2958 5.73545 13.8807 5.70801 13.3528C5.70801 12.8238 6.20197 12.3868 6.83314 12.3626C7.45059 12.3626 7.95827 12.7663 7.97199 13.2826C7.99943 13.8128 7.50547 14.2498 6.88802 14.2717ZM12.5277 14.2717C11.8965 14.2958 11.3751 13.8807 11.3477 13.3528C11.3477 12.8238 11.8416 12.3868 12.4728 12.3626C13.0902 12.3626 13.5979 12.7663 13.6116 13.2826C13.6391 13.8128 13.1451 14.2498 12.5277 14.2717ZM18.1257 18.5037C17.4945 18.4922 16.9868 18.0552 16.9868 17.5262C16.9731 16.9972 17.4808 16.5614 18.112 16.5499H18.1257C18.7706 16.5499 19.292 16.9869 19.292 17.5262C19.292 18.0667 18.7706 18.5037 18.1257 18.5037ZM11.3477 17.5258C11.3751 18.0548 11.8965 18.47 12.5277 18.4458C13.1451 18.424 13.6391 17.987 13.6116 17.458C13.5979 16.9405 13.0902 16.5368 12.4728 16.5368C11.8416 16.561 11.3477 16.9968 11.3477 17.5258ZM5.69434 17.5258C5.72178 18.0548 6.24318 18.47 6.87435 18.4458C7.4918 18.424 7.98576 17.987 7.95832 17.458C7.9446 16.9405 7.43692 16.5368 6.81947 16.5368C6.1883 16.561 5.69434 16.9968 5.69434 17.5258ZM17.0007 13.3417C17.0007 12.8127 17.4947 12.3872 18.1259 12.3757C18.7433 12.3757 19.2373 12.7885 19.2647 13.2957C19.2784 13.8247 18.7845 14.2617 18.167 14.272C17.5359 14.2835 17.0145 13.881 17.0007 13.3532V13.3417Z" fill="#E3E4EA"/>
<path opacity="0.4" d="M0.00488281 8.34597C0.0227203 7.67091 0.0913263 6.33115 0.220305 5.8999C0.878922 3.47453 3.11547 1.93352 6.31251 1.71387H18.689C21.8586 1.94502 24.1226 3.49638 24.7812 5.8999C24.9088 6.31965 24.9774 7.66976 24.9953 8.34597H0.00488281Z" fill="#636A79"/>
<path d="M7.36806 5.27852C7.97179 5.27852 8.42459 4.90017 8.42459 4.39302V0.886654C8.42459 0.379502 7.97179 0 7.36806 0C6.76432 0 6.31152 0.379502 6.31152 0.886654V4.39302C6.31152 4.90017 6.76432 5.27852 7.36806 5.27852Z" fill="#E3E4EA"/>
<path d="M17.6317 5.27852C18.2217 5.27852 18.6883 4.90017 18.6883 4.39302V0.886654C18.6883 0.379502 18.2217 0 17.6317 0C17.028 0 16.5752 0.379502 16.5752 0.886654V4.39302C16.5752 4.90017 17.028 5.27852 17.6317 5.27852Z" fill="#E3E4EA"/>
</svg>
